<?xml version="1.0" standalone="no"?>
<!DOCTYPE svg PUBLIC "-//W3C//DTD SVG 20010904//EN"
 "http://www.w3.org/TR/2001/REC-SVG-20010904/DTD/svg10.dtd">
<svg version="1.0" xmlns="http://www.w3.org/2000/svg"
 width="197.000000pt" height="197.000000pt" viewBox="0 0 197.000000 197.000000"
 preserveAspectRatio="xMidYMid meet">
<metadata>
Created by potrace 1.14, written by Peter Selinger 2001-2017
</metadata>
<g transform="translate(0.000000,197.000000) scale(0.100000,-0.100000)"
fill="#000000" stroke="none">
<path d="M0 1584 c0 -335 2 -388 16 -401 11 -11 12 -19 5 -26 -31 -31 7 -73
54 -61 15 4 25 2 25 -5 0 -20 58 -13 65 8 3 10 15 27 26 37 16 15 24 16 39 6
11 -7 33 -9 50 -5 26 5 37 0 66 -28 19 -18 34 -40 34 -48 0 -8 9 -25 21 -37
29 -31 16 -48 -22 -28 -17 8 -38 13 -47 11 -14 -4 -14 -5 -2 -6 9 0 28 -27 42
-58 15 -32 35 -67 45 -78 10 -11 28 -41 40 -67 l23 -48 -25 -6 c-14 -3 -25
-11 -25 -16 0 -6 -6 -8 -14 -5 -8 3 -17 1 -19 -6 -2 -7 -8 -9 -12 -5 -4 4 -3
14 4 21 9 12 7 13 -14 9 -15 -2 -25 0 -25 7 0 7 5 9 10 6 6 -3 10 -1 10 5 0 7
7 9 16 6 9 -3 12 -2 9 5 -4 6 -19 7 -35 4 -28 -6 -31 -3 -63 62 -19 37 -40 87
-47 110 -9 31 -19 42 -37 46 -13 2 -26 0 -29 -4 -3 -5 -13 -9 -22 -9 -13 0
-14 2 -4 8 10 7 10 16 -2 44 -14 33 -18 36 -60 36 -30 1 -52 -5 -70 -19 l-26
-20 0 -236 0 -235 30 -38 c16 -21 30 -47 30 -58 0 -12 -11 -24 -30 -32 l-30
-12 0 -209 0 -209 396 0 395 0 -17 29 c-21 36 -13 61 21 61 19 0 24 -5 22 -20
-2 -11 -6 -23 -10 -26 -4 -4 -7 -16 -7 -26 0 -13 7 -18 25 -18 14 0 25 1 25 3
0 1 -7 23 -15 49 -14 48 -14 48 11 54 48 12 174 -32 174 -62 0 -8 -15 -21 -32
-29 -29 -12 30 -14 475 -15 l507 0 0 140 c0 138 0 140 -22 141 -18 0 -19 2 -7
7 13 6 -2 23 -67 82 -46 41 -84 78 -84 83 0 4 11 12 24 17 13 5 27 13 30 19 7
11 -29 25 -42 17 -19 -12 -92 91 -92 129 0 16 -21 21 -34 8 -8 -8 -13 -9 -41
-12 -8 0 -19 -16 -24 -33 l-9 -33 -2 45 -2 45 -11 -34 c-9 -28 -7 -40 11 -75
22 -42 36 -136 21 -136 -5 0 -9 -4 -9 -10 0 -5 7 -10 15 -10 8 0 15 -9 15 -20
0 -11 -4 -20 -9 -20 -5 0 -13 -9 -16 -20 -4 -11 -10 -18 -15 -15 -5 3 -15 -3
-22 -15 -7 -11 -23 -20 -35 -20 -13 0 -23 -5 -23 -12 0 -6 -3 -8 -7 -5 -3 4
-17 0 -30 -8 -13 -9 -23 -11 -23 -5 0 6 -21 9 -47 9 l-48 -2 40 -7 c38 -6 39
-7 14 -14 -20 -6 -25 -13 -22 -27 4 -15 0 -19 -17 -19 -18 0 -20 3 -11 13 9
11 2 14 -34 15 -25 0 -45 -4 -45 -10 0 -6 8 -7 18 -3 11 4 14 3 7 -4 -14 -14
-36 -16 -72 -7 -18 4 -33 14 -33 21 0 9 -6 12 -15 9 -8 -4 -15 -1 -15 5 0 20
-38 54 -51 46 -9 -6 -7 -12 6 -21 10 -8 16 -16 13 -19 -2 -3 -14 3 -25 12 -14
13 -18 25 -13 43 7 28 -8 60 -27 60 -7 0 -13 5 -13 11 0 5 -5 7 -12 3 -6 -4
-8 -3 -4 4 3 6 -6 13 -23 17 -34 7 -60 52 -36 61 22 9 45 -3 45 -23 -1 -17 -1
-17 -11 0 -14 23 -28 22 -22 -3 4 -15 14 -20 42 -20 24 0 31 3 22 9 -7 5 -9
10 -5 12 13 6 61 79 73 112 6 16 15 25 21 22 7 -4 6 -13 -1 -26 -6 -12 -7 -24
-3 -27 4 -4 9 -1 11 6 3 6 9 10 13 7 5 -3 7 -12 4 -20 -4 -8 -10 -12 -15 -9
-5 3 -9 -3 -9 -13 0 -26 38 -85 50 -78 6 3 10 8 10 11 0 3 -5 2 -11 -2 -8 -4
-9 1 -4 17 5 19 4 21 -5 9 -8 -12 -10 -7 -8 20 2 23 8 34 17 32 8 -2 11 3 8
12 -4 9 3 22 16 31 25 18 15 20 -15 4 -18 -9 -24 -8 -35 7 -19 25 -16 34 10
34 24 0 62 20 39 20 -9 0 -10 4 -2 13 5 6 19 23 30 37 l19 25 1 -30 c0 -24 2
-27 11 -15 9 12 10 11 6 -8 -3 -12 -1 -20 4 -16 13 8 11 94 -2 94 -6 0 -9 6
-6 14 3 8 -5 18 -19 25 -31 14 -94 15 -94 1 0 -5 7 -7 15 -4 8 3 22 -1 30 -10
9 -9 24 -16 33 -16 13 0 11 -4 -6 -16 -13 -9 -29 -13 -37 -10 -8 3 -14 0 -12
-7 1 -7 -4 -11 -10 -9 -7 1 -13 -6 -14 -15 0 -10 -7 -1 -14 20 -8 21 -11 45
-8 55 6 16 5 16 -14 -1 -11 -9 -23 -14 -27 -10 -4 4 -4 -1 0 -11 4 -10 2 -21
-4 -25 -16 -10 -18 -57 -3 -75 11 -13 11 -19 1 -31 -13 -16 -50 -21 -50 -7 0
5 -16 17 -35 28 -19 10 -35 24 -35 31 0 7 -4 13 -10 13 -5 0 -10 16 -10 35 0
19 -3 34 -8 34 -25 -4 -42 2 -37 14 4 6 0 4 -8 -6 -9 -10 -21 -15 -31 -11 -11
4 -16 1 -16 -10 0 -19 -50 -22 -68 -4 -35 35 21 86 58 53 18 -17 45 -21 35 -5
-3 5 -22 17 -42 27 -34 16 -36 16 -48 -1 -9 -11 -15 -14 -20 -6 -4 6 -2 17 4
24 9 10 5 13 -17 12 -15 -1 -33 3 -40 8 -9 7 -16 6 -21 -3 -4 -6 -14 -11 -22
-9 -8 2 -13 -2 -12 -8 3 -14 -69 -13 -80 1 -6 6 -10 6 -14 -2 -2 -7 -11 -13
-19 -13 -8 0 -14 -7 -14 -15 0 -8 -5 -15 -11 -15 -12 0 -1 43 12 48 5 2 9 10
9 17 0 16 62 14 68 -3 2 -8 8 -7 19 3 8 8 18 13 23 10 5 -3 5 9 -1 27 -5 18
-9 34 -9 35 0 10 -22 0 -37 -16 -20 -20 -83 -44 -83 -31 0 22 13 38 26 33 19
-7 45 27 38 50 -5 17 -3 17 17 7 19 -11 21 -10 16 3 -4 11 -2 14 9 10 8 -3 13
-12 10 -19 -3 -8 -1 -14 3 -14 5 0 11 6 14 13 4 9 7 9 18 0 15 -15 33 -17 25
-4 -9 13 18 20 54 15 20 -4 30 -2 26 5 -4 5 2 9 14 8 11 -1 20 -7 20 -14 0
-18 8 -16 37 7 14 11 41 20 60 20 50 0 173 22 173 30 0 4 15 10 33 13 35 5 53
10 107 27 19 6 64 15 100 20 39 5 69 15 76 24 12 18 81 66 92 66 4 0 15 -19
23 -42 15 -39 48 -63 41 -28 -2 8 -5 25 -6 38 -2 12 -6 25 -9 29 -11 10 -8 35
3 28 12 -8 12 -8 1 33 -6 20 -6 30 0 27 5 -4 9 -15 9 -25 0 -10 5 -22 11 -26
6 -3 9 -21 7 -39 -2 -19 0 -31 4 -29 4 3 6 -9 4 -25 -2 -17 0 -31 4 -31 5 0
15 -3 23 -6 12 -4 12 3 -3 48 -9 29 -25 91 -35 138 -9 47 -25 108 -35 135 -9
28 -20 65 -24 84 -6 33 -6 33 27 27 28 -5 39 -2 58 18 18 18 29 22 39 15 12
-7 11 -9 -4 -9 -19 0 -19 -1 -2 -13 16 -12 60 -168 93 -329 3 -15 9 -26 13
-23 5 3 15 -2 23 -10 9 -8 20 -15 25 -15 6 0 13 -6 15 -12 4 -10 8 -10 15 1 8
12 11 11 13 -2 4 -15 7 -15 32 -3 25 14 31 12 28 -6 -1 -10 0 -10 38 3 31 11
31 11 31 82 l-1 72 -19 -37 c-18 -32 -23 -36 -52 -33 -17 3 -36 10 -42 16 -8
9 -7 10 5 6 12 -4 15 0 12 17 -4 18 4 26 46 46 l50 25 1 353 0 352 -985 0
-985 0 0 -386z m1300 331 c6 -7 13 -21 14 -28 1 -8 7 -21 13 -28 15 -20 53
-139 53 -168 0 -29 8 -44 60 -123 54 -80 80 -154 80 -223 0 -72 -21 -168 -41
-188 -16 -16 -59 -32 -73 -29 -15 5 -45 -29 -39 -44 3 -8 0 -14 -7 -14 -7 0
-10 8 -7 20 4 15 -1 22 -21 27 -15 3 -31 11 -35 17 -5 6 -5 1 -2 -11 5 -19 2
-23 -14 -23 -12 0 -21 5 -21 10 0 6 5 10 11 10 5 0 7 5 3 11 -5 8 -9 8 -14 -1
-6 -9 -15 -10 -36 -2 -16 6 -23 11 -16 11 17 1 15 21 -2 21 -8 0 -17 8 -20 17
-6 14 -9 15 -15 4 -7 -10 -10 -9 -16 8 -4 12 -15 21 -26 21 -11 0 -17 -4 -14
-10 3 -5 13 -10 21 -10 8 0 14 -5 14 -11 0 -7 -7 -8 -17 -4 -10 4 -27 8 -38
10 -40 4 -67 17 -54 26 10 6 10 11 1 22 -7 7 -9 17 -5 20 10 10 -10 8 -27 -3
-13 -8 -12 -10 3 -10 10 0 17 -5 15 -11 -2 -6 -7 -10 -12 -9 -5 1 -13 -4 -17
-12 -6 -10 -9 -8 -9 7 0 17 -2 17 -10 5 -8 -12 -10 -11 -10 8 0 12 -5 22 -12
22 -17 0 41 54 79 74 36 18 95 20 163 5 25 -5 59 -11 75 -13 17 -2 21 -1 10 1
-11 2 -25 11 -32 19 -6 9 -15 15 -20 14 -4 -1 -41 6 -81 16 -54 14 -75 15 -80
7 -12 -19 -66 -36 -71 -22 -2 8 -6 7 -13 -2 -7 -11 -11 -11 -15 -1 -2 6 -18
12 -34 12 -17 0 -28 4 -25 8 2 4 -41 6 -97 5 -75 -3 -98 -1 -87 7 11 8 4 10
-32 8 -48 -3 -62 4 -32 16 9 3 25 6 36 6 12 0 18 3 14 7 -13 13 -81 8 -93 -7
-11 -13 -14 -12 -19 8 -3 12 -10 22 -14 22 -4 0 -5 12 -2 27 4 23 2 25 -17 20
-11 -3 -21 -1 -21 4 0 5 8 9 18 10 14 0 14 2 -3 8 -11 5 -23 4 -26 -1 -3 -5
-9 -3 -12 6 -4 10 -1 16 8 16 17 0 16 -1 19 60 1 33 8 52 25 70 13 14 21 19
17 13 -4 -7 -2 -13 3 -13 6 0 11 7 11 15 0 9 9 15 25 15 14 0 25 5 25 11 0 5
5 7 10 4 6 -3 10 -2 10 4 0 6 7 7 17 4 12 -5 14 -3 8 7 -6 10 -3 12 11 9 11
-3 30 6 47 22 l28 27 -38 36 c-21 20 -60 47 -87 61 -28 14 -45 25 -38 25 23 0
88 -35 136 -74 54 -44 55 -44 221 -30 55 5 104 9 110 9 5 0 28 23 50 50 23 28
52 56 66 62 33 17 74 16 89 -2z m412 -52 c5 -7 5 -14 -2 -18 -12 -7 -31 35
-22 50 3 5 8 2 10 -5 3 -8 9 -20 14 -27z m-1204 -242 c-26 -26 -37 -44 -32
-53 4 -7 4 -10 -1 -6 -4 4 -14 3 -22 -3 -10 -9 -13 -8 -13 2 0 17 80 99 96 99
7 0 -6 -18 -28 -39z m1065 -8 c-7 -2 -19 -2 -25 0 -7 3 -2 5 12 5 14 0 19 -2
13 -5z m87 -52 c0 -10 -66 -18 -129 -17 -28 1 -46 6 -49 15 -3 8 0 11 6 7 6
-3 12 -1 14 5 2 6 26 17 53 24 45 11 53 11 78 -7 15 -11 27 -23 27 -27z
m-1125 -9 c-3 -3 -11 0 -18 7 -9 10 -8 11 6 5 10 -3 15 -9 12 -12z m-35 -37
c0 -8 -4 -15 -10 -15 -5 0 -7 7 -4 15 4 8 8 15 10 15 2 0 4 -7 4 -15z m76 -54
c-4 -6 -14 -7 -23 -4 -15 6 -14 7 3 13 22 9 29 6 20 -9z m274 -221 c0 -5 -4
-10 -10 -10 -5 0 -10 5 -10 10 0 6 5 10 10 10 6 0 10 -4 10 -10z m310 -91 c20
-7 17 -7 -12 -3 -26 3 -38 1 -38 -7 0 -7 -3 -10 -6 -6 -9 8 5 27 19 26 7 -1
23 -5 37 -10z m-100 -9 c-20 -13 -33 -13 -25 0 3 6 14 10 23 10 15 0 15 -2 2
-10z m143 -42 c-2 -5 -15 -8 -29 -8 -13 0 -24 3 -24 8 0 4 13 7 29 7 16 0 27
-3 24 -7z m42 2 c3 -5 -1 -10 -9 -10 -9 0 -16 5 -16 10 0 6 4 10 9 10 6 0 13
-4 16 -10z m40 -40 c3 -5 1 -10 -4 -10 -6 0 -11 5 -11 10 0 6 2 10 4 10 3 0 8
-4 11 -10z m-1079 -106 c-15 -14 -21 -34 -12 -34 3 0 11 7 19 15 13 13 16 11
27 -16 14 -32 7 -50 -12 -31 -23 23 -48 14 -48 -16 0 -15 4 -32 9 -38 6 -5 -8
-9 -40 -9 -41 0 -49 3 -49 18 0 10 5 15 10 12 6 -3 20 -3 31 0 19 6 20 12 14
51 -6 40 -4 44 14 44 11 0 23 5 26 10 3 6 11 10 16 10 6 0 3 -7 -5 -16z m354
-44 c0 -5 -5 -10 -11 -10 -5 0 -7 5 -4 10 3 6 8 10 11 10 2 0 4 -4 4 -10z
m-19 -47 c-8 -15 -10 -15 -11 -2 0 17 10 32 18 25 2 -3 -1 -13 -7 -23z m39 17
c0 -5 -4 -10 -10 -10 -5 0 -10 5 -10 10 0 6 5 10 10 10 6 0 10 -4 10 -10z
m-86 -49 c5 -30 10 -39 21 -35 18 7 18 5 1 -36 -14 -33 -27 -30 -22 6 2 10 0
28 -4 39 -15 42 -21 77 -12 71 5 -3 12 -24 16 -45z m-231 -1 c-2 -2 -8 2 -13
10 -6 10 -10 11 -10 3 0 -7 -7 -10 -16 -6 -12 4 -11 8 8 17 19 10 24 9 29 -3
4 -9 5 -18 2 -21z m383 -6 c-4 -9 -9 -15 -11 -12 -3 3 -3 13 1 22 4 9 9 15 11
12 3 -3 3 -13 -1 -22z m-432 -30 c3 -8 2 -12 -4 -9 -6 3 -10 10 -10 16 0 14 7
11 14 -7z m41 -12 c-3 -3 -11 0 -18 7 -9 10 -8 11 6 5 10 -3 15 -9 12 -12z
m43 -2 c12 -19 11 -20 -8 -8 -11 7 -20 16 -20 20 0 15 15 8 28 -12z m475 -28
c3 -15 -1 -19 -23 -18 -17 1 -26 6 -23 13 3 7 9 10 14 7 5 -3 9 0 9 5 0 18 17
12 23 -7z m-431 -16 c4 -18 0 -26 -15 -30 -15 -4 -17 -2 -8 7 6 6 11 19 11 29
0 26 7 22 12 -6z m339 -4 c-11 -4 -11 -6 0 -13 8 -5 9 -9 3 -9 -6 0 -18 8 -25
17 -10 11 -10 14 -1 9 7 -4 12 -2 12 4 0 6 5 8 12 4 9 -6 9 -9 -1 -12z m58 -7
c7 3 8 0 5 -10 -5 -11 -2 -14 12 -9 14 4 15 3 6 -4 -17 -12 -62 7 -62 27 0 11
3 11 15 1 8 -6 19 -9 24 -5z m-291 -55 c15 0 15 -2 2 -10 -11 -7 -11 -10 -2
-10 7 0 10 -4 7 -10 -3 -5 3 -10 14 -10 11 0 23 -4 26 -10 4 -6 -5 -7 -23 -4
-18 4 -41 0 -58 -9 -28 -15 -28 -16 36 -14 60 2 65 0 68 -20 3 -19 -5 -24 -57
-39 -34 -9 -61 -21 -61 -26 0 -12 69 1 97 18 29 18 36 5 29 -54 -6 -40 -3 -51
16 -72 28 -30 83 -70 98 -70 18 0 11 -18 -10 -25 -36 -12 -160 79 -160 116 0
6 -9 7 -20 4 -19 -6 -29 8 -12 18 4 2 1 2 -6 1 -7 -2 -15 3 -18 11 -4 8 -15
15 -25 15 -10 0 -19 5 -19 10 0 6 5 10 10 10 6 0 10 5 10 10 0 6 -9 10 -21 10
-14 0 -19 5 -16 15 5 10 -4 16 -28 21 -19 3 -35 10 -35 16 0 5 5 6 12 2 8 -5
9 -2 5 9 -4 11 -1 17 8 17 8 0 15 7 15 16 0 11 -6 14 -20 9 -30 -10 -24 2 10
20 18 9 28 20 24 27 -5 7 -2 9 7 6 8 -3 23 -2 34 3 11 4 26 6 33 3 8 -2 21 -4
30 -4z m501 -8 c10 -20 -2 -42 -23 -42 -6 0 -5 4 3 9 16 10 8 41 -11 41 -10 0
-10 -2 1 -9 9 -6 10 -11 2 -15 -6 -4 -11 -3 -11 2 0 6 -10 8 -22 5 -22 -4 -22
-4 2 10 34 21 48 20 59 -1z m-121 -45 c-19 -17 -38 -42 -42 -55 -5 -13 -10
-21 -13 -19 -8 9 26 65 53 86 41 32 42 25 2 -12z m322 -2 c0 -5 -5 -3 -10 5
-5 8 -10 20 -10 25 0 6 5 3 10 -5 5 -8 10 -19 10 -25z m64 10 c3 -9 -3 -19
-14 -25 -18 -10 -19 -9 -8 15 13 29 14 30 22 10z m-352 -28 c-12 -13 -23 -32
-23 -43 -1 -16 -2 -16 -6 -2 -5 19 24 68 40 68 6 0 1 -10 -11 -23z m112 9 c-3
-8 -1 -17 5 -20 6 -4 8 -13 5 -20 -3 -7 2 -16 10 -19 9 -4 16 -14 15 -24 0
-11 -3 -13 -6 -5 -8 19 -33 14 -33 -7 0 -11 -4 -23 -10 -26 -6 -3 -7 1 -4 9 4
11 0 16 -12 16 -16 0 -17 2 -4 10 13 8 12 10 -2 10 -29 0 -21 28 9 32 25 3 26
4 11 19 -13 12 -14 19 -5 28 15 15 27 14 21 -3z m-100 -61 c-9 -14 -18 -25
-21 -25 -5 0 5 18 20 38 17 22 18 13 1 -13z m46 -27 c0 -5 -6 -7 -12 -5 -7 1
-14 -9 -16 -22 -2 -15 0 -21 7 -17 7 5 8 1 4 -11 -5 -15 -3 -16 8 -5 10 9 10
15 1 24 -18 18 -14 30 6 19 14 -7 18 -18 14 -41 -3 -19 -8 -27 -12 -20 -4 6
-11 11 -16 9 -5 -1 -13 9 -18 24 -12 33 9 90 25 66 5 -7 9 -17 9 -21z m-93
-10 c-3 -8 -6 -5 -6 6 -1 11 2 17 5 13 3 -3 4 -12 1 -19z m65 -89 c12 -10 19
-21 15 -26 -5 -4 -12 -1 -16 6 -6 8 -10 9 -12 2 -3 -7 -9 -7 -19 -1 -13 8 -12
10 4 10 18 0 18 1 3 18 -9 10 -19 34 -22 53 l-6 34 15 -40 c8 -21 25 -47 38
-56z m-135 39 c-3 -7 -5 -2 -5 12 0 14 2 19 5 13 2 -7 2 -19 0 -25z m-339 -43
c-3 -3 -9 2 -12 12 -6 14 -5 15 5 6 7 -7 10 -15 7 -18z m1395 -45 c11 -13 13
-20 4 -20 -6 0 -22 -3 -34 -6 -26 -7 -32 13 -11 34 16 16 21 15 41 -8z m-803
-2 c-1 -16 -50 -53 -50 -38 0 10 36 50 45 50 3 0 5 -6 5 -12z m49 -35 c28 -4
42 -28 35 -61 -4 -18 -11 -32 -16 -32 -6 0 -7 7 -4 15 3 8 9 22 13 32 4 11 3
14 -5 9 -6 -4 -19 2 -29 13 -9 11 -20 18 -25 15 -4 -3 -8 2 -8 11 0 10 4 13
13 8 6 -4 18 -8 26 -10z m-49 -38 c7 -9 8 -15 2 -15 -5 0 -12 7 -16 15 -3 8
-4 15 -2 15 2 0 9 -7 16 -15z m495 -55 c3 -6 -1 -7 -9 -4 -18 7 -21 14 -7 14
6 0 13 -4 16 -10z m-68 -26 c-3 -3 -12 -4 -19 -1 -8 3 -5 6 6 6 11 1 17 -2 13
-5z m-88 -28 c-2 -2 -15 -7 -29 -10 l-25 -7 25 15 c21 12 42 14 29 2z m-144
-6 c3 -5 2 -10 -4 -10 -5 0 -13 5 -16 10 -3 6 -2 10 4 10 5 0 13 -4 16 -10z"/>
<path d="M1188 1853 c-32 -38 -29 -52 12 -73 22 -11 40 -16 40 -10 0 5 -4 10
-10 10 -5 0 -10 9 -10 19 0 14 5 18 19 14 10 -3 22 0 25 6 4 6 2 11 -5 11 -6
0 -9 8 -6 20 5 20 -12 24 -25 5 -5 -6 -8 -5 -8 3 0 17 -14 15 -32 -5z"/>
<path d="M615 1650 c-3 -5 -1 -10 4 -10 6 0 11 5 11 10 0 6 -2 10 -4 10 -3 0
-8 -4 -11 -10z"/>
<path d="M587 1619 c7 -7 15 -10 18 -7 3 3 -2 9 -12 12 -14 6 -15 5 -6 -5z"/>
<path d="M574 1585 c0 -14 4 -25 9 -25 10 0 9 38 -2 44 -5 3 -8 -5 -7 -19z"/>
<path d="M1175 1584 c-14 -15 -25 -32 -25 -38 0 -6 10 2 23 18 15 18 37 31 63
36 l39 8 -38 1 c-29 1 -44 -5 -62 -25z"/>
<path d="M803 1560 c-30 -7 -103 -54 -103 -66 0 -2 21 7 47 22 48 27 77 28
178 9 26 -4 25 -3 -10 14 -56 26 -75 30 -112 21z"/>
<path d="M565 1530 c3 -5 8 -10 11 -10 2 0 4 5 4 10 0 6 -5 10 -11 10 -5 0 -7
-4 -4 -10z"/>
<path d="M601 1474 c0 -11 3 -14 6 -6 3 7 2 16 -1 19 -3 4 -6 -2 -5 -13z"/>
<path d="M1066 1451 c-3 -5 0 -14 8 -20 10 -8 16 -8 25 2 6 8 8 17 4 20 -9 10
-31 9 -37 -2z"/>
<path d="M1065 1210 c3 -5 10 -10 16 -10 5 0 9 5 9 10 0 6 -7 10 -16 10 -8 0
-12 -4 -9 -10z"/>
<path d="M1260 1171 c0 -5 7 -12 16 -15 14 -5 15 -4 4 9 -14 17 -20 19 -20 6z"/>
<path d="M495 450 c-3 -5 -1 -10 4 -10 6 0 11 5 11 10 0 6 -2 10 -4 10 -3 0
-8 -4 -11 -10z"/>
<path d="M1580 1425 c0 -8 -4 -15 -9 -15 -13 0 0 -48 15 -54 9 -4 14 2 14 17
1 21 1 21 15 -3 14 -24 14 -24 15 -3 0 12 -5 25 -10 28 -6 4 -8 16 -5 28 5 17
4 19 -4 7 -7 -10 -11 -11 -11 -2 0 6 -4 12 -10 12 -5 0 -10 -7 -10 -15z"/>
<path d="M1599 1339 c-11 -52 -9 -69 9 -69 27 0 33 31 10 54 -10 11 -18 18
-19 15z"/>
<path d="M1618 1256 c-16 -11 -16 -17 -3 -65 7 -29 19 -59 25 -66 7 -8 10 -22
6 -30 -3 -9 -2 -14 3 -10 5 3 12 -1 14 -7 4 -10 6 -10 6 0 1 7 6 10 11 7 6 -3
14 -4 20 0 11 7 -8 56 -27 68 -9 5 -10 15 -3 32 10 26 4 52 -16 73 -15 15 -15
15 -36 -2z"/>
<path d="M1887 1189 c4 -13 8 -18 11 -10 2 7 -1 18 -6 23 -8 8 -9 4 -5 -13z"/>
<path d="M1915 1190 c-3 -5 -1 -10 4 -10 6 0 11 5 11 10 0 6 -2 10 -4 10 -3 0
-8 -4 -11 -10z"/>
<path d="M223 1042 c-26 -4 -29 -14 -10 -30 8 -7 21 -7 40 1 25 11 26 13 10
22 -10 6 -28 9 -40 7z"/>
<path d="M1417 1011 c4 -15 -1 -20 -19 -23 -18 -2 -22 -9 -20 -28 1 -14 4 -31
7 -37 5 -14 55 -18 55 -5 0 4 15 6 33 4 38 -4 68 21 49 40 -6 6 -8 17 -5 25 5
12 1 14 -15 9 -15 -5 -27 -1 -39 13 -23 27 -53 28 -46 2z"/>
<path d="M1520 1021 c0 -6 4 -13 10 -16 6 -3 7 1 4 9 -7 18 -14 21 -14 7z"/>
<path d="M685 870 c3 -5 11 -10 16 -10 6 0 7 5 4 10 -3 6 -11 10 -16 10 -6 0
-7 -4 -4 -10z"/>
<path d="M1040 836 c0 -2 9 -6 20 -9 11 -3 18 -1 14 4 -5 9 -34 13 -34 5z"/>
<path d="M1430 820 c0 -11 -4 -20 -10 -20 -5 0 -7 7 -4 15 4 8 1 15 -5 15 -6
0 -10 -12 -9 -27 2 -39 10 -50 19 -27 7 17 8 18 8 1 1 -31 36 -16 37 16 1 28
-10 37 -19 15 -4 -8 -6 -7 -6 4 -1 9 5 19 12 21 7 3 5 6 -5 6 -12 1 -18 -6
-18 -19z m30 -40 c0 -5 -2 -10 -4 -10 -3 0 -8 5 -11 10 -3 6 -1 10 4 10 6 0
11 -4 11 -10z"/>
<path d="M970 814 c0 -14 3 -14 15 -4 8 7 15 14 15 16 0 2 -7 4 -15 4 -8 0
-15 -7 -15 -16z"/>
<path d="M910 765 c0 -2 11 -15 25 -29 30 -30 34 -19 5 12 -20 21 -30 27 -30
17z"/>
<path d="M1315 729 c-6 -8 -4 -10 5 -4 10 6 12 4 6 -11 -6 -15 -5 -17 5 -6 9
9 10 15 2 23 -8 8 -13 7 -18 -2z"/>
<path d="M1796 709 c-32 -38 -34 -86 -5 -123 20 -25 69 -37 69 -16 0 6 -4 10
-9 10 -5 0 -11 12 -14 28 -3 15 -10 45 -16 67 -7 27 -7 43 1 52 6 7 8 13 5 13
-3 0 -17 -14 -31 -31z"/>
<path d="M1861 717 c8 -7 21 -21 27 -32 14 -25 16 -1 2 26 -6 10 -18 19 -28
19 -15 -1 -15 -2 -1 -13z"/>
<path d="M1030 710 c36 -11 50 -11 50 0 0 6 -17 10 -37 9 -34 -1 -35 -2 -13
-9z"/>
<path d="M1500 705 c0 -17 -2 -17 -10 -5 -8 12 -10 12 -10 -5 0 -17 -2 -17
-10 -5 -8 12 -10 9 -10 -13 0 -16 4 -26 9 -22 5 3 12 1 15 -4 3 -5 15 -7 26
-4 21 6 20 25 -1 63 -7 12 -8 11 -9 -5z"/>
<path d="M990 660 c0 -5 5 -10 10 -10 6 0 10 -7 10 -15 0 -8 4 -15 10 -15 6 0
5 10 -2 25 -11 25 -28 34 -28 15z"/>
<path d="M1025 660 c3 -5 8 -10 11 -10 2 0 4 5 4 10 0 6 -5 10 -11 10 -5 0 -7
-4 -4 -10z"/>
<path d="M1486 575 c4 -8 8 -15 10 -15 2 0 4 7 4 15 0 8 -4 15 -10 15 -5 0 -7
-7 -4 -15z"/>
<path d="M1295 500 c-3 -5 -2 -10 4 -10 5 0 13 5 16 10 3 6 2 10 -4 10 -5 0
-13 -4 -16 -10z"/>
<path d="M1229 444 c-11 -14 -10 -20 14 -40 16 -13 38 -24 50 -24 18 1 15 4
-12 15 -28 13 -33 19 -29 40 6 29 -4 32 -23 9z"/>
<path d="M1395 440 c3 -5 10 -10 16 -10 5 0 9 5 9 10 0 6 -7 10 -16 10 -8 0
-12 -4 -9 -10z"/>
<path d="M1095 391 c-29 -7 -29 -7 -7 -15 12 -4 22 -12 22 -17 0 -5 7 -9 16
-9 11 0 14 6 9 20 -5 15 -3 18 9 14 9 -3 16 -1 16 5 0 12 -18 12 -65 2z"/>
<path d="M1148 319 c9 -24 9 -23 42 -10 23 9 24 10 3 10 -12 1 -24 -5 -26 -11
-3 -7 -6 -3 -6 10 -1 12 -5 22 -11 22 -5 0 -6 -9 -2 -21z"/>
<path d="M1481 304 c10 -13 10 -17 -2 -25 -12 -7 -11 -9 3 -9 24 0 32 18 14
35 -19 20 -32 19 -15 -1z"/>
<path d="M1535 300 c-3 -5 -2 -10 4 -10 5 0 13 5 16 10 3 6 2 10 -4 10 -5 0
-13 -4 -16 -10z"/>
<path d="M1405 290 c3 -5 11 -10 16 -10 6 0 7 5 4 10 -3 6 -11 10 -16 10 -6 0
-7 -4 -4 -10z"/>
<path d="M1186 253 c3 -11 13 -19 22 -19 9 1 18 -3 19 -8 2 -12 25 -26 43 -26
11 1 8 6 -8 20 -13 11 -21 23 -18 28 3 5 0 9 -7 10 -7 0 -22 4 -34 7 -18 6
-21 4 -17 -12z"/>
<path d="M1260 258 c0 -8 65 -26 92 -25 9 0 14 6 11 13 -2 7 -11 10 -18 7 -8
-2 -20 -1 -27 4 -16 10 -58 11 -58 1z"/>
<path d="M920 8 c0 -4 7 -8 15 -8 8 0 15 4 15 8 0 5 -7 9 -15 9 -8 0 -15 -4
-15 -9z"/>
</g>
</svg>
